<mxfile host="Electron" agent="Mozilla/5.0 (Windows NT 10.0; Win64; x64) AppleWebKit/537.36 (KHTML, like Gecko) draw.io/28.0.6 Chrome/138.0.7204.100 Electron/37.2.3 Safari/537.36" version="28.0.6">
  <diagram name="Page-1" id="b2IsJggE5GlXFkGgae3m">
    <mxGraphModel dx="1281" dy="660" grid="1" gridSize="10" guides="1" tooltips="1" connect="1" arrows="1" fold="1" page="1" pageScale="1" pageWidth="850" pageHeight="1100" math="0" shadow="0">
      <root>
        <mxCell id="0" />
        <mxCell id="1" parent="0" />
        <mxCell id="sxJqE4evHL1ikqLWTQXC-3" value="" style="edgeStyle=orthogonalEdgeStyle;rounded=0;orthogonalLoop=1;jettySize=auto;html=1;" edge="1" parent="1" source="sxJqE4evHL1ikqLWTQXC-1" target="sxJqE4evHL1ikqLWTQXC-2">
          <mxGeometry relative="1" as="geometry" />
        </mxCell>
        <mxCell id="sxJqE4evHL1ikqLWTQXC-1" value="Begin" style="ellipse;whiteSpace=wrap;html=1;" vertex="1" parent="1">
          <mxGeometry x="40" y="40" width="120" height="80" as="geometry" />
        </mxCell>
        <mxCell id="sxJqE4evHL1ikqLWTQXC-5" value="" style="edgeStyle=orthogonalEdgeStyle;rounded=0;orthogonalLoop=1;jettySize=auto;html=1;" edge="1" parent="1" source="sxJqE4evHL1ikqLWTQXC-2" target="sxJqE4evHL1ikqLWTQXC-4">
          <mxGeometry relative="1" as="geometry" />
        </mxCell>
        <mxCell id="sxJqE4evHL1ikqLWTQXC-2" value="Insert numRentals" style="whiteSpace=wrap;html=1;" vertex="1" parent="1">
          <mxGeometry x="40" y="170" width="120" height="60" as="geometry" />
        </mxCell>
        <mxCell id="sxJqE4evHL1ikqLWTQXC-7" value="yes" style="edgeStyle=orthogonalEdgeStyle;rounded=0;orthogonalLoop=1;jettySize=auto;html=1;" edge="1" parent="1" source="sxJqE4evHL1ikqLWTQXC-4" target="sxJqE4evHL1ikqLWTQXC-6">
          <mxGeometry relative="1" as="geometry" />
        </mxCell>
        <mxCell id="sxJqE4evHL1ikqLWTQXC-9" value="no" style="edgeStyle=orthogonalEdgeStyle;rounded=0;orthogonalLoop=1;jettySize=auto;html=1;entryX=0.5;entryY=0;entryDx=0;entryDy=0;" edge="1" parent="1" source="sxJqE4evHL1ikqLWTQXC-4" target="sxJqE4evHL1ikqLWTQXC-8">
          <mxGeometry relative="1" as="geometry" />
        </mxCell>
        <mxCell id="sxJqE4evHL1ikqLWTQXC-4" value="IF&lt;div&gt;NumRentals &amp;gt;=10&lt;/div&gt;&lt;div&gt;and&lt;/div&gt;&lt;div&gt;numRentals &amp;lt;=24&lt;/div&gt;" style="rhombus;whiteSpace=wrap;html=1;" vertex="1" parent="1">
          <mxGeometry x="40" y="280" width="120" height="80" as="geometry" />
        </mxCell>
        <mxCell id="sxJqE4evHL1ikqLWTQXC-21" style="edgeStyle=orthogonalEdgeStyle;rounded=0;orthogonalLoop=1;jettySize=auto;html=1;entryX=1;entryY=0.5;entryDx=0;entryDy=0;" edge="1" parent="1" source="sxJqE4evHL1ikqLWTQXC-6" target="sxJqE4evHL1ikqLWTQXC-19">
          <mxGeometry relative="1" as="geometry">
            <Array as="points">
              <mxPoint x="420" y="320" />
              <mxPoint x="420" y="800" />
            </Array>
          </mxGeometry>
        </mxCell>
        <mxCell id="sxJqE4evHL1ikqLWTQXC-6" value="Return 1" style="shape=parallelogram;perimeter=parallelogramPerimeter;whiteSpace=wrap;html=1;fixedSize=1;" vertex="1" parent="1">
          <mxGeometry x="200" y="290" width="120" height="60" as="geometry" />
        </mxCell>
        <mxCell id="sxJqE4evHL1ikqLWTQXC-11" value="yes" style="edgeStyle=orthogonalEdgeStyle;rounded=0;orthogonalLoop=1;jettySize=auto;html=1;entryX=0;entryY=0.5;entryDx=0;entryDy=0;" edge="1" parent="1" source="sxJqE4evHL1ikqLWTQXC-8" target="sxJqE4evHL1ikqLWTQXC-10">
          <mxGeometry relative="1" as="geometry" />
        </mxCell>
        <mxCell id="sxJqE4evHL1ikqLWTQXC-13" value="no" style="edgeStyle=orthogonalEdgeStyle;rounded=0;orthogonalLoop=1;jettySize=auto;html=1;entryX=0.5;entryY=0;entryDx=0;entryDy=0;" edge="1" parent="1" source="sxJqE4evHL1ikqLWTQXC-8" target="sxJqE4evHL1ikqLWTQXC-12">
          <mxGeometry relative="1" as="geometry" />
        </mxCell>
        <mxCell id="sxJqE4evHL1ikqLWTQXC-8" value="Else IF&lt;div&gt;NumRentals &amp;gt;24&lt;/div&gt;&lt;div&gt;and&lt;/div&gt;&lt;div&gt;numRentals &amp;lt;=49&lt;/div&gt;" style="rhombus;whiteSpace=wrap;html=1;" vertex="1" parent="1">
          <mxGeometry x="40" y="400" width="120" height="80" as="geometry" />
        </mxCell>
        <mxCell id="sxJqE4evHL1ikqLWTQXC-22" style="edgeStyle=orthogonalEdgeStyle;rounded=0;orthogonalLoop=1;jettySize=auto;html=1;" edge="1" parent="1" source="sxJqE4evHL1ikqLWTQXC-10">
          <mxGeometry relative="1" as="geometry">
            <mxPoint x="420" y="440" as="targetPoint" />
          </mxGeometry>
        </mxCell>
        <mxCell id="sxJqE4evHL1ikqLWTQXC-10" value="Return 2" style="shape=parallelogram;perimeter=parallelogramPerimeter;whiteSpace=wrap;html=1;fixedSize=1;" vertex="1" parent="1">
          <mxGeometry x="200" y="410" width="120" height="60" as="geometry" />
        </mxCell>
        <mxCell id="sxJqE4evHL1ikqLWTQXC-15" value="yes" style="edgeStyle=orthogonalEdgeStyle;rounded=0;orthogonalLoop=1;jettySize=auto;html=1;entryX=0;entryY=0.5;entryDx=0;entryDy=0;" edge="1" parent="1" source="sxJqE4evHL1ikqLWTQXC-12" target="sxJqE4evHL1ikqLWTQXC-14">
          <mxGeometry relative="1" as="geometry" />
        </mxCell>
        <mxCell id="sxJqE4evHL1ikqLWTQXC-18" value="no" style="edgeStyle=orthogonalEdgeStyle;rounded=0;orthogonalLoop=1;jettySize=auto;html=1;entryX=0.5;entryY=0;entryDx=0;entryDy=0;" edge="1" parent="1" source="sxJqE4evHL1ikqLWTQXC-12" target="sxJqE4evHL1ikqLWTQXC-17">
          <mxGeometry relative="1" as="geometry" />
        </mxCell>
        <mxCell id="sxJqE4evHL1ikqLWTQXC-12" value="Else IF&lt;div&gt;NumRentals &amp;gt;49&lt;/div&gt;&lt;div&gt;and&lt;/div&gt;&lt;div&gt;numRentals &amp;lt;=74&lt;/div&gt;" style="rhombus;whiteSpace=wrap;html=1;" vertex="1" parent="1">
          <mxGeometry x="40" y="520" width="120" height="80" as="geometry" />
        </mxCell>
        <mxCell id="sxJqE4evHL1ikqLWTQXC-23" style="edgeStyle=orthogonalEdgeStyle;rounded=0;orthogonalLoop=1;jettySize=auto;html=1;" edge="1" parent="1" source="sxJqE4evHL1ikqLWTQXC-14">
          <mxGeometry relative="1" as="geometry">
            <mxPoint x="420" y="560" as="targetPoint" />
          </mxGeometry>
        </mxCell>
        <mxCell id="sxJqE4evHL1ikqLWTQXC-14" value="Return 4" style="shape=parallelogram;perimeter=parallelogramPerimeter;whiteSpace=wrap;html=1;fixedSize=1;" vertex="1" parent="1">
          <mxGeometry x="200" y="530" width="120" height="60" as="geometry" />
        </mxCell>
        <mxCell id="sxJqE4evHL1ikqLWTQXC-20" style="edgeStyle=orthogonalEdgeStyle;rounded=0;orthogonalLoop=1;jettySize=auto;html=1;entryX=0.5;entryY=0;entryDx=0;entryDy=0;" edge="1" parent="1" source="sxJqE4evHL1ikqLWTQXC-17" target="sxJqE4evHL1ikqLWTQXC-19">
          <mxGeometry relative="1" as="geometry" />
        </mxCell>
        <mxCell id="sxJqE4evHL1ikqLWTQXC-17" value="Return 8" style="shape=parallelogram;perimeter=parallelogramPerimeter;whiteSpace=wrap;html=1;fixedSize=1;" vertex="1" parent="1">
          <mxGeometry x="40" y="650" width="120" height="60" as="geometry" />
        </mxCell>
        <mxCell id="sxJqE4evHL1ikqLWTQXC-19" value="End" style="ellipse;whiteSpace=wrap;html=1;" vertex="1" parent="1">
          <mxGeometry x="40" y="760" width="120" height="80" as="geometry" />
        </mxCell>
      </root>
    </mxGraphModel>
  </diagram>
</mxfile>
